<mxfile host="app.diagrams.net" modified="2024-02-22T06:36:57.965Z" agent="Mozilla/5.0 (Windows NT 10.0; Win64; x64) AppleWebKit/537.36 (KHTML, like Gecko) Chrome/121.0.0.0 Safari/537.36 Edg/121.0.0.0" etag="7q9Hx0F45pGnQnMszvib" version="23.1.5" type="github">
  <diagram name="第 1 页" id="rIsHSFBBIo2I6mxMkCQL">
    <mxGraphModel dx="475" dy="255" grid="1" gridSize="10" guides="1" tooltips="1" connect="1" arrows="1" fold="1" page="1" pageScale="1" pageWidth="827" pageHeight="1169" math="0" shadow="0">
      <root>
        <mxCell id="0" />
        <mxCell id="1" parent="0" />
        <mxCell id="BgDJFzVFT2Xdpg6W4kP7-1" value="" style="endArrow=none;html=1;rounded=0;fillColor=#b1ddf0;strokeColor=#f91f06;strokeWidth=2;" parent="1" edge="1">
          <mxGeometry width="50" height="50" relative="1" as="geometry">
            <mxPoint x="559" y="240" as="sourcePoint" />
            <mxPoint x="559" y="160" as="targetPoint" />
          </mxGeometry>
        </mxCell>
        <mxCell id="BgDJFzVFT2Xdpg6W4kP7-3" value="" style="endArrow=none;html=1;rounded=0;fillColor=#b1ddf0;strokeColor=#f91201;strokeWidth=2;" parent="1" edge="1">
          <mxGeometry width="50" height="50" relative="1" as="geometry">
            <mxPoint x="559" y="160" as="sourcePoint" />
            <mxPoint x="619" y="160" as="targetPoint" />
          </mxGeometry>
        </mxCell>
        <mxCell id="BgDJFzVFT2Xdpg6W4kP7-4" value="" style="endArrow=none;html=1;rounded=0;fillColor=#f8cecc;strokeColor=#f91201;strokeWidth=2;gradientColor=#ea6b66;" parent="1" edge="1">
          <mxGeometry width="50" height="50" relative="1" as="geometry">
            <mxPoint x="620" y="160" as="sourcePoint" />
            <mxPoint x="620" y="100" as="targetPoint" />
          </mxGeometry>
        </mxCell>
        <mxCell id="BgDJFzVFT2Xdpg6W4kP7-5" value="" style="endArrow=none;html=1;rounded=0;fillColor=#f8cecc;strokeColor=#f91201;strokeWidth=2;gradientColor=#ea6b66;" parent="1" edge="1">
          <mxGeometry width="50" height="50" relative="1" as="geometry">
            <mxPoint x="620" y="100" as="sourcePoint" />
            <mxPoint x="680" y="100" as="targetPoint" />
          </mxGeometry>
        </mxCell>
        <mxCell id="BgDJFzVFT2Xdpg6W4kP7-6" value="" style="endArrow=none;html=1;rounded=0;fillColor=#f8cecc;strokeColor=#f91201;strokeWidth=2;gradientColor=#ea6b66;" parent="1" edge="1">
          <mxGeometry width="50" height="50" relative="1" as="geometry">
            <mxPoint x="680" y="240" as="sourcePoint" />
            <mxPoint x="680" y="100" as="targetPoint" />
          </mxGeometry>
        </mxCell>
        <mxCell id="JEFZm6surBAOUrWXB33V-2" value="" style="endArrow=none;html=1;rounded=0;fillColor=#b1ddf0;strokeColor=#f91f06;strokeWidth=2;" edge="1" parent="1">
          <mxGeometry width="50" height="50" relative="1" as="geometry">
            <mxPoint x="560" y="240" as="sourcePoint" />
            <mxPoint x="620" y="240" as="targetPoint" />
          </mxGeometry>
        </mxCell>
        <mxCell id="JEFZm6surBAOUrWXB33V-3" value="" style="endArrow=none;html=1;rounded=0;fillColor=#f8cecc;strokeColor=#f91201;strokeWidth=2;gradientColor=#ea6b66;" edge="1" parent="1">
          <mxGeometry width="50" height="50" relative="1" as="geometry">
            <mxPoint x="620" y="240" as="sourcePoint" />
            <mxPoint x="680" y="240" as="targetPoint" />
          </mxGeometry>
        </mxCell>
      </root>
    </mxGraphModel>
  </diagram>
</mxfile>
